# Blender 5.2.1 LTS
# www.blender.org
o Plane
v -3.000000 0.000000 5.000000
v -3.000000 0.000000 -3.000000
v -3.000000 -1.000000 5.000000
v -3.000000 -1.000000 -3.000000
v -1.000000 0.000000 4.252333
v -1.747667 0.000000 5.000000
v -1.747667 -1.000000 5.000000
v -1.000000 -1.000000 4.252333
v -1.431347 0.000000 -3.000000
v -1.000000 0.000000 -2.568653
v -1.000000 -1.000000 -2.568653
v -1.431347 -1.000000 -3.000000
v 3.000000 0.000000 -11.109455
v 1.000000 0.000000 -6.633136
v 3.000000 -1.000000 -1.000000
v -1.000000 0.000000 -6.633136
v 3.000000 -1.000000 -11.109455
v 3.000000 0.000000 -1.000000
v -3.000000 0.000000 -5.000000
v 1.501220 0.000000 -1.000000
v 1.000000 0.000000 -1.501220
v 1.000000 -1.000000 -1.501220
v 1.501220 -1.000000 -1.000000
v -3.000000 0.000000 -9.000000
v 1.000000 1.000000 4.000000
v -3.000000 -1.000000 -5.000000
v 1.000000 -1.000000 4.000000
v -3.000000 -1.000000 -9.000000
v 1.000000 0.000000 -10.781090
v 1.328365 0.000000 -11.109455
v 1.328365 -1.000000 -11.109455
v 1.000000 -1.000000 -10.781090
v -1.000000 0.000000 -7.366864
v 1.000000 0.000000 -7.366864
v -1.000000 -0.200000 -6.633136
v 1.000000 -0.200000 -6.633136
v 1.000000 -0.200000 -7.366864
v -1.000000 -0.200000 -7.366864
v -1.000000 0.000000 -5.282287
v -1.282287 0.000000 -5.000000
v -1.282287 -1.000000 -5.000000
v -1.000000 -1.000000 -5.282287
v -1.301515 0.000000 -9.000000
v -1.000000 0.000000 -8.698485
v -1.000000 -1.000000 -8.698485
v -1.301515 -1.000000 -9.000000
v 1.000000 -1.000000 2.000000
v 1.000000 1.000000 2.000000
v 3.000000 -1.000000 4.000000
v 3.000000 1.000000 4.000000
v 3.000000 -1.000000 2.000000
v 3.000000 1.000000 2.000000
v 1.000000 1.000000 6.622437
v 1.000000 -1.000000 6.622437
v 1.000000 -1.000000 4.622437
v 1.000000 1.000000 4.622437
v 3.000000 -1.000000 6.622437
v 3.000000 1.000000 6.622437
v 3.000000 -1.000000 4.622437
v 3.000000 1.000000 4.622437
v 1.000000 1.000000 9.297234
v 1.000000 -1.000000 9.297234
v 1.000000 -1.000000 7.297234
v 1.000000 1.000000 7.297234
v 3.000000 -1.000000 9.297234
v 3.000000 1.000000 9.297234
v 3.000000 -1.000000 7.297234
v 3.000000 1.000000 7.297234
vn 0.7071 -0.0000 0.7071
vn -0.0000 -0.0000 1.0000
vn 0.7071 -0.0000 -0.7071
vn -0.0000 1.0000 -0.0000
vn -0.0000 -0.0000 -1.0000
vn 1.0000 -0.0000 -0.0000
vn -0.7071 -0.0000 0.7071
vn -1.0000 -0.0000 -0.0000
vn -0.7071 -0.0000 -0.7071
vt 1.000000 0.093458
vt 0.626167 0.000000
vt 0.000000 0.000000
vt 1.000000 0.946082
vt 0.784326 1.000000
vt 0.000000 1.000000
vt 1.000000 0.000000
vt 1.000000 1.000000
vt 0.375000 0.000000
vt 0.625000 0.000000
vt 0.625000 0.250000
vt 0.375000 0.250000
vt 0.858857 0.000000
vt 1.000000 0.094096
vt 1.000000 0.094096
vt 0.375000 0.500000
vt 0.625000 0.500000
vt 0.625000 0.750000
vt 0.375000 0.750000
vt 0.625000 1.000000
vt 0.375000 1.000000
vt 0.849243 1.000000
vt 1.000000 0.926529
vt 0.875000 0.500000
vt 0.875000 0.750000
s 0
f 5/1/1 6/2/1 7/2/1 8/1/1
f 1/3/2 3/3/2 7/2/2 6/2/2
f 11/4/3 12/5/3 9/5/3 10/4/3
f 1/3/4 6/2/4 5/1/4 10/4/4 9/5/4 2/6/4
f 9/5/5 12/5/5 4/6/5 2/6/5
f 5/1/6 8/1/6 11/4/6 10/4/6
f 14/7/6 36/7/6 37/8/6 34/8/6
f 20/3/7 21/3/7 22/3/7 23/3/7
f 20/3/2 23/3/2 15/3/2 18/3/2
f 16/3/4 14/7/4 34/8/4 33/6/4
f 33/6/8 38/6/8 35/3/8 16/3/8
f 27/9/8 25/10/8 48/11/8 47/12/8
f 29/3/9 30/3/9 31/3/9 32/3/9
f 29/3/4 21/3/4 20/3/4 18/3/4 13/3/4 30/3/4
f 13/3/5 17/3/5 31/3/5 30/3/5
f 29/3/8 32/3/8 22/3/8 21/3/8
f 16/3/2 35/3/2 36/7/2 14/7/2
f 34/8/5 37/8/5 38/6/5 33/6/5
f 41/13/1 42/14/1 39/15/1 40/13/1
f 19/3/2 26/3/2 41/13/2 40/13/2
f 47/16/5 48/17/5 52/18/5 51/19/5
f 49/19/2 50/18/2 25/20/2 27/21/2
f 43/22/3 44/23/3 45/23/3 46/22/3
f 19/3/4 40/13/4 39/15/4 44/23/4 43/22/4 24/6/4
f 43/22/5 46/22/5 28/6/5 24/6/5
f 39/15/6 42/14/6 45/23/6 44/23/6
f 52/17/4 48/24/4 25/25/4 50/18/4
f 54/9/8 53/10/8 56/11/8 55/12/8
f 55/16/5 56/17/5 60/18/5 59/19/5
f 57/19/2 58/18/2 53/20/2 54/21/2
f 60/17/4 56/24/4 53/25/4 58/18/4
f 62/9/8 61/10/8 64/11/8 63/12/8
f 63/16/5 64/17/5 68/18/5 67/19/5
f 65/19/2 66/18/2 61/20/2 62/21/2
f 68/17/4 64/24/4 61/25/4 66/18/4
